<svg width="100" height="64" viewBox="0 0 100 64" fill="none" xmlns="http://www.w3.org/2000/svg">
    <path fill-rule="evenodd" clip-rule="evenodd" d="M9.84118 46.2433C9.17849 46.2433 8.80484 45.8816 8.80484 45.2377V33.9215L0.180492 19.3014C-0.23545 18.5781 0.0958939 18.0951 0.88313 18.0951H6.19169C6.77213 18.0951 7.14577 18.3377 7.39252 18.8184L12.123 27.5984L16.8488 18.8184C17.0955 18.3377 17.4691 18.0951 18.0496 18.0951H23.3581C24.1454 18.0951 24.4767 18.5781 24.0631 19.3014L15.4388 33.9215V46.2176" fill="#EEEEEE"/>
    <path fill-rule="evenodd" clip-rule="evenodd" d="M93.9395 45.2372V27.1433C93.9395 26.4985 94.3031 26.1373 94.9499 26.1373H98.9895C99.6363 26.1373 100 26.4985 100 27.1433V45.2372C100 45.8797 99.6363 46.2432 98.9895 46.2432H94.9499C94.3031 46.2432 93.9395 45.8797 93.9395 45.2372Z" fill="#EEEEEE"/>
    <path fill-rule="evenodd" clip-rule="evenodd" d="M37.143 37.1985C37.143 34.4959 35.0446 32.7051 32.3189 32.7051C29.5932 32.7051 27.4971 34.4959 27.4971 37.1985C27.4971 39.9011 29.5932 41.6896 32.3189 41.6896C35.0446 41.6896 37.143 39.9011 37.143 37.1985ZM21.2109 37.1982C21.2109 31.5241 26.1559 27.1429 32.3207 27.1429C38.4856 27.1429 43.4329 31.5241 43.4329 37.1982C43.4329 42.8723 38.4856 47.2488 32.3207 47.2488C26.1559 47.2488 21.2109 42.8723 21.2109 37.1982Z" fill="#EEEEEE"/>
    <path fill-rule="evenodd" clip-rule="evenodd" d="M49.4941 46.2433V19.1298C49.4941 18.4688 49.8591 18.0951 50.5039 18.0951H54.5427C55.1897 18.0951 55.5547 18.4688 55.5547 19.1298V45.2156C55.5547 45.8719 55.1897 46.2433 54.5427 46.2433" fill="#EEEEEE"/>
    <path fill-rule="evenodd" clip-rule="evenodd" d="M81.558 32.1709C81.558 27.3445 78.4393 24.2856 73.9265 24.2856H68.1802V40.0514H73.9265C78.4393 40.0514 81.558 36.9926 81.558 32.1709ZM73.9271 18.0951C81.8449 18.0951 87.8775 24.2057 87.8775 32.1704C87.8775 40.1303 81.8449 46.2433 73.9271 46.2433H63.668H62.6416C61.983 46.2433 61.6152 45.879 61.6152 45.2392V19.0991C61.6152 18.457 61.983 18.0951 62.6416 18.0951" fill="#EEEEEE"/>
    <path fill-rule="evenodd" clip-rule="evenodd" d="M93.9395 22.0535V19.1631C93.9395 18.4785 94.3031 18.0951 94.9499 18.0951H98.9895C99.6363 18.0951 100 18.4785 100 19.1631V22.0535C100 22.7357 99.6363 23.1216 98.9895 23.1216H94.9499C94.3031 23.1216 93.9395 22.7357 93.9395 22.0535Z" fill="#EEEEEE"/>
    <path fill-rule="evenodd" clip-rule="evenodd" d="M29.293 22.0535V19.1631C29.293 18.4785 29.6611 18.0951 30.3159 18.0951H42.4113C43.066 18.0951 43.4342 18.4785 43.4342 19.1631V22.0535C43.4342 22.7357 43.066 23.1216 42.4113 23.1216H30.3159C29.6611 23.1216 29.293 22.7357 29.293 22.0535Z" fill="#EEEEEE"/>
    <mask id="mask0" mask-type="alpha" maskUnits="userSpaceOnUse" x="0" y="52" width="100" height="12">
        <path fill-rule="evenodd" clip-rule="evenodd" d="M0.554688 52.9053H99.6138V63.333H0.554688V52.9053Z" fill="white"/>
    </mask>
    <g mask="url(#mask0)">
        <path fill-rule="evenodd" clip-rule="evenodd" d="M99.6138 63.3332C93.2976 63.3332 90.0814 61.774 87.4117 60.5222C85.1512 59.4628 83.521 58.6976 79.8466 58.6976C76.17 58.6976 74.5397 59.4628 72.2816 60.5222C69.6096 61.774 66.2864 63.3332 60.0771 63.3332C53.8679 63.3332 50.5447 61.774 47.8727 60.5222C45.6169 59.4628 43.9843 58.6976 40.31 58.6976C36.6356 58.6976 35.0031 59.4628 32.7473 60.5222C30.0775 61.774 26.752 63.3332 20.5428 63.3332C14.3336 63.3332 10.9011 61.774 8.229 60.5222C5.97089 59.4628 4.21278 58.6976 0.554688 58.6976V52.9053C6.87088 52.9053 10.1987 54.4623 12.8685 55.7163C15.1266 56.7734 16.8149 57.5387 20.487 57.5387C24.1613 57.5387 25.8218 56.7734 28.0799 55.7163C30.7496 54.4623 34.0868 52.9053 40.296 52.9053C46.5052 52.9053 49.8354 54.4623 52.5051 55.7163C54.7633 56.7734 56.4004 57.5387 60.0748 57.5387C63.7492 57.5387 65.3817 56.7734 67.6398 55.7163C70.3096 54.4623 73.6374 52.9053 79.8466 52.9053C86.0535 52.9053 89.3791 54.4623 92.0488 55.7163C94.3069 56.7734 95.965 57.5387 99.6138 57.5387V63.3332Z" fill="#EEEEEE"/>
    </g>
    <path fill-rule="evenodd" clip-rule="evenodd" d="M99.9964 11.0582C93.6847 11.0582 90.4707 9.40476 87.8029 8.07731C85.5441 6.95389 83.915 6.14241 80.2433 6.14241C76.5692 6.14241 74.9402 6.95389 72.6837 8.07731C70.0135 9.40476 66.6927 11.0582 60.4879 11.0582C54.2831 11.0582 50.9622 9.40476 48.2921 8.07731C46.0379 6.95389 44.4065 6.14241 40.7348 6.14241C37.063 6.14241 35.4316 6.95389 33.1775 8.07731C30.5096 9.40476 27.1865 11.0582 20.9817 11.0582C14.7769 11.0582 11.3468 9.40476 8.67666 8.07731C6.42016 6.95389 4.6633 6.14241 1.00781 6.14241V0C7.31951 0 10.645 1.65111 13.3128 2.98091C15.5693 4.10432 17.2565 4.91346 20.9259 4.91346C24.5977 4.91346 26.2569 4.10432 28.5134 2.98091C31.1812 1.65111 34.516 0 40.7208 0C46.9256 0 50.2534 1.65111 52.9213 2.98091C55.1778 4.10432 56.8138 4.91346 60.4855 4.91346C64.1573 4.91346 65.7887 4.10432 68.0452 2.98091C70.713 1.65111 74.0385 0 80.2433 0C86.4458 0 89.7689 1.65111 92.4367 2.98091C94.6932 4.10432 96.3432 4.91346 99.9964 4.91346V11.0582Z" fill="#EEEEEE"/>
</svg>
